<?xml version="1.0" encoding="UTF-8"?>
<svg width="1438px" height="870px" viewBox="0 0 1438 870" version="1.1" xmlns="http://www.w3.org/2000/svg" xmlns:xlink="http://www.w3.org/1999/xlink">
    <!-- Generator: Sketch 44.1 (41455) - http://www.bohemiancoding.com/sketch -->
    <title>Group 2</title>
    <desc>Created with Sketch.</desc>
    <defs></defs>
    <g id="Page-1" stroke="none" stroke-width="1" fill="none" fill-rule="evenodd">
        <g id="Desktop-HD-Copy-5" fill="#FFFFFF">
            <g id="Group-2" transform="translate(-1.000000, -1.000000)">
                <g id="Group">
                    <rect id="Rectangle-4" transform="translate(103.571925, 103.571925) rotate(-45.000000) translate(-103.571925, -103.571925) " x="31.0215427" y="31.0215427" width="145.100764" height="145.100764"></rect>
                    <rect id="Rectangle-4-Copy-2" transform="translate(513.856845, 103.571925) rotate(-45.000000) translate(-513.856845, -103.571925) " x="441.306463" y="31.0215427" width="145.100764" height="145.100764"></rect>
                    <rect id="Rectangle-4-Copy-3" transform="translate(718.999305, 103.571925) rotate(-45.000000) translate(-718.999305, -103.571925) " x="646.448923" y="31.0215427" width="145.100764" height="145.100764"></rect>
                    <rect id="Rectangle-4-Copy-6" transform="translate(1336.428075, 103.571925) rotate(-45.000000) translate(-1336.428075, -103.571925) " x="1263.87769" y="31.0215427" width="145.100764" height="145.100764"></rect>
                </g>
                <g id="Group-Copy-4" transform="translate(0.000000, 820.000000)">
                    <rect id="Rectangle-4" transform="translate(103.571925, 103.571925) rotate(-45.000000) translate(-103.571925, -103.571925) " x="31.0215427" y="31.0215427" width="145.100764" height="145.100764"></rect>
                    <rect id="Rectangle-4-Copy-2" transform="translate(513.856845, 103.571925) rotate(-45.000000) translate(-513.856845, -103.571925) " x="441.306463" y="31.0215427" width="145.100764" height="145.100764"></rect>
                    <rect id="Rectangle-4-Copy-3" transform="translate(718.999305, 103.571925) rotate(-45.000000) translate(-718.999305, -103.571925) " x="646.448923" y="31.0215427" width="145.100764" height="145.100764"></rect>
                    <rect id="Rectangle-4-Copy-6" transform="translate(1131.550382, 103.550382) rotate(-45.000000) translate(-1131.550382, -103.550382) " x="1059" y="31" width="145.100764" height="145.100764"></rect>
                </g>
                <g id="Group-Copy" transform="translate(0.000000, 205.000000)">
                    <rect id="Rectangle-4" transform="translate(103.571925, 103.571925) rotate(-45.000000) translate(-103.571925, -103.571925) " x="31.0215427" y="31.0215427" width="145.100764" height="145.100764"></rect>
                    <rect id="Rectangle-4-Copy" transform="translate(308.714385, 103.571925) rotate(-45.000000) translate(-308.714385, -103.571925) " x="236.164003" y="31.0215427" width="145.100764" height="145.100764"></rect>
                    <rect id="Rectangle-4-Copy-3" transform="translate(718.999305, 103.571925) rotate(-45.000000) translate(-718.999305, -103.571925) " x="646.448923" y="31.0215427" width="145.100764" height="145.100764"></rect>
                    <rect id="Rectangle-4-Copy-5" transform="translate(1131.285615, 103.571925) rotate(-45.000000) translate(-1131.285615, -103.571925) " x="1058.73523" y="31.0215427" width="145.100764" height="145.100764"></rect>
                </g>
                <g id="Group-Copy-2" transform="translate(206.000000, 410.000000)">
                    <rect id="Rectangle-4-Copy" transform="translate(102.714385, 103.571925) rotate(-45.000000) translate(-102.714385, -103.571925) " x="30.1640028" y="31.0215427" width="145.100764" height="145.100764"></rect>
                    <rect id="Rectangle-4-Copy-4" transform="translate(718.141765, 103.571925) rotate(-45.000000) translate(-718.141765, -103.571925) " x="645.591383" y="31.0215427" width="145.100764" height="145.100764"></rect>
                    <rect id="Rectangle-4-Copy-6" transform="translate(1130.428075, 103.571925) rotate(-45.000000) translate(-1130.428075, -103.571925) " x="1057.87769" y="31.0215427" width="145.100764" height="145.100764"></rect>
                </g>
                <g id="Group-Copy-3" transform="translate(0.000000, 615.000000)">
                    <rect id="Rectangle-4" transform="translate(103.571925, 103.571925) rotate(-45.000000) translate(-103.571925, -103.571925) " x="31.0215427" y="31.0215427" width="145.100764" height="145.100764"></rect>
                    <rect id="Rectangle-4-Copy-3" transform="translate(718.999305, 103.571925) rotate(-45.000000) translate(-718.999305, -103.571925) " x="646.448923" y="31.0215427" width="145.100764" height="145.100764"></rect>
                    <rect id="Rectangle-4-Copy-5" transform="translate(1131.550382, 103.550382) rotate(-45.000000) translate(-1131.550382, -103.550382) " x="1059" y="31" width="145.100764" height="145.100764"></rect>
                    <rect id="Rectangle-4-Copy-6" transform="translate(1336.428075, 103.571925) rotate(-45.000000) translate(-1336.428075, -103.571925) " x="1263.87769" y="31.0215427" width="145.100764" height="145.100764"></rect>
                </g>
            </g>
        </g>
    </g>
</svg>