<?xml version="1.0" encoding="UTF-8"?>
<svg width="19px" height="19px" viewBox="0 0 19 19" version="1.1" xmlns="http://www.w3.org/2000/svg" xmlns:xlink="http://www.w3.org/1999/xlink">
    <!-- Generator: Sketch 44.1 (41455) - http://www.bohemiancoding.com/sketch -->
    <title>linkedin</title>
    <desc>Created with Sketch.</desc>
    <defs></defs>
    <g id="Page-1" stroke="none" stroke-width="1" fill="none" fill-rule="evenodd">
        <g id="Mobile" transform="translate(-163.000000, -547.000000)" fill="#000000">
            <path d="M167.284603,553.815835 L163.233259,553.815835 L163.233259,565.982144 L167.284603,565.982144 L167.284603,553.815835 Z M167.542416,550.059134 C167.530139,548.868284 166.670763,547.959801 165.283485,547.959801 C163.908483,547.959801 163,548.868284 163,550.059134 C163,551.22543 163.871653,552.158467 165.234378,552.158467 L165.258931,552.158467 C166.670763,552.158467 167.554693,551.22543 167.542416,550.059134 Z M173.558048,555.545086 L173.558048,553.815835 L169.518981,553.815835 C169.518981,553.815835 169.568088,554.957577 169.518981,565.982144 L173.558048,565.982144 L173.558048,559.193073 C173.558048,558.824769 173.594879,558.468742 173.693093,558.198653 C173.987736,557.474321 174.650684,556.725437 175.767872,556.725437 C177.228812,556.725437 177.818098,557.842625 177.818098,559.47544 L177.818098,565.982144 L181.857165,565.982144 L181.857165,559.008921 C181.857165,555.276774 179.868324,553.533468 177.204258,553.533468 C175.052447,553.533468 174.091009,554.711938 173.558048,555.545086 L173.558048,555.545086 Z" id="linkedin"></path>
        </g>
    </g>
</svg>