<svg viewBox="0 0 75 75" xmlns="http://www.w3.org/2000/svg" xmlns:xlink="http://www.w3.org/1999/xlink">
    <g id="Page-1" stroke="none" stroke-width="1" fill="none" fill-rule="evenodd">
        <g id="Desktop-HD-Copy-8" transform="translate(-683.000000, -26.000000)" fill-rule="nonzero">
            <g id="logo" transform="translate(683.000000, 26.000000)">
                <path d="M37.5,0 C16.7893219,0 0,16.7893219 0,37.5 C0,58.2106781 16.7893219,75 37.5,75 C58.2106781,75 75,58.2106781 75,37.5 L70.3460621,37.5 C70.3460621,55.6403791 55.6403791,70.3460621 37.5,70.3460621 C19.3596209,70.3460621 4.65393795,55.6403791 4.65393795,37.5 C4.65393795,19.3596209 19.3596209,4.65393795 37.5,4.65393795 L37.5,0 Z" id="yellow" fill="#F8E71C"></path>
                <path d="M37.5,65.0656325 C52.7240784,65.0656325 65.0656325,52.7240784 65.0656325,37.5 C65.0656325,22.2759216 52.7240784,9.93436754 37.5,9.93436754 L37.5,14.5883055 C50.1537795,14.5883055 60.4116945,24.8462205 60.4116945,37.5 C60.4116945,50.1537795 50.1537795,60.4116945 37.5,60.4116945 L37.5,65.0656325 Z" id="pink" fill="#FF00FE"></path>
                <path d="M37.5,19.8687351 C27.7625212,19.8687351 19.8687351,27.7625212 19.8687351,37.5 C19.8687351,47.2374788 27.7625212,55.1312649 37.5,55.1312649 C47.2374788,55.1312649 55.1312649,47.2374788 55.1312649,37.5 L50.477327,37.5 C50.477327,44.6671798 44.6671798,50.477327 37.5,50.477327 C30.3328202,50.477327 24.522673,44.6671798 24.522673,37.5 C24.522673,30.3328202 30.3328202,24.522673 37.5,24.522673 L37.5,19.8687351 Z" id="cyan" fill="#01FFFF"></path>
            </g>
        </g>
    </g>
</svg>