<?xml version="1.0" encoding="UTF-8"?>
<svg width="20px" height="16px" viewBox="0 0 20 16" version="1.1" xmlns="http://www.w3.org/2000/svg" xmlns:xlink="http://www.w3.org/1999/xlink">
    <!-- Generator: Sketch 44.1 (41455) - http://www.bohemiancoding.com/sketch -->
    <title>twitter</title>
    <desc>Created with Sketch.</desc>
    <defs></defs>
    <g id="Page-1" stroke="none" stroke-width="1" fill="none" fill-rule="evenodd">
        <g id="Mobile" transform="translate(-63.000000, -549.000000)" fill="#000000">
            <path d="M82.8884166,551.151769 C82.1763621,551.458689 81.4029237,551.679672 80.6049317,551.765609 C81.4274773,551.274537 82.0535941,550.501099 82.3482374,549.580339 C81.5870757,550.03458 80.7276997,550.366054 79.8314933,550.537929 C79.1071621,549.764491 78.0759108,549.285696 76.9341684,549.285696 C74.7366211,549.285696 72.9687619,551.065832 72.9687619,553.251102 C72.9687619,553.558022 73.0055923,553.864942 73.0669763,554.159585 C69.7767938,553.98771 66.8426385,552.41628 64.8906273,550.010027 C64.5468768,550.599313 64.350448,551.274537 64.350448,552.011145 C64.350448,553.386147 65.0502257,554.60155 66.1183073,555.313605 C65.4676369,555.289051 64.8537969,555.104899 64.3258944,554.810256 L64.3258944,554.859363 C64.3258944,556.786821 65.6886193,558.382805 67.5055857,558.751109 C67.1741121,558.837046 66.8180849,558.886153 66.4620577,558.886153 C66.2042449,558.886153 65.9587089,558.8616 65.7131729,558.824769 C66.2165217,560.3962 67.6774609,561.537942 69.4207666,561.574773 C68.0580417,562.642854 66.3515665,563.268971 64.4977696,563.268971 C64.166296,563.268971 63.859376,563.256694 63.5401792,563.219864 C65.2957617,564.34933 67.3828177,565 69.6294722,565 C76.9218916,565 80.9118517,558.959814 80.9118517,553.71762 C80.9118517,553.545745 80.9118517,553.37387 80.8995749,553.201995 C81.6730133,552.637262 82.3482374,551.937484 82.8884166,551.151769 Z" id="twitter"></path>
        </g>
    </g>
</svg>