<svg width="24" height="17" xmlns="http://www.w3.org/2000/svg"><path d="M12.083 0c.587 0 7.518.02 9.308.457A3.022 3.022 0 0123.5 2.63c.345 1.912.512 3.851.5 5.794a31.522 31.522 0 01-.5 5.706 3.022 3.022 0 01-2.109 2.174c-1.75.468-8.416.498-9.26.5h-.176c-.843-.002-7.51-.032-9.26-.5a3.022 3.022 0 01-2.108-2.087 31.522 31.522 0 01-.5-5.793c-.01-1.928.158-3.853.5-5.75A3.022 3.022 0 012.696.5c1.79-.479 8.721-.5 9.308-.5zM9.598 4.87v7.108l6.25-3.554-6.25-3.554z" fill="#000" fill-rule="evenodd"/></svg>
