<?xml version="1.0" encoding="UTF-8"?>
<svg width="19px" height="20px" viewBox="0 0 19 20" version="1.1" xmlns="http://www.w3.org/2000/svg" xmlns:xlink="http://www.w3.org/1999/xlink">
    <!-- Generator: Sketch 44.1 (41455) - http://www.bohemiancoding.com/sketch -->
    <title>instagram</title>
    <desc>Created with Sketch.</desc>
    <defs></defs>
    <g id="Page-1" stroke="none" stroke-width="1" fill="none" fill-rule="evenodd">
        <g id="Mobile" transform="translate(-114.000000, -547.000000)" fill="#000000">
            <path d="M126.571444,557.142848 C126.571444,555.411819 125.159612,553.999987 123.428583,553.999987 C121.697554,553.999987 120.285722,555.411819 120.285722,557.142848 C120.285722,558.873877 121.697554,560.285709 123.428583,560.285709 C125.159612,560.285709 126.571444,558.873877 126.571444,557.142848 Z M128.265642,557.142848 C128.265642,559.81919 126.104925,561.979907 123.428583,561.979907 C120.75224,561.979907 118.591523,559.81919 118.591523,557.142848 C118.591523,554.466505 120.75224,552.305788 123.428583,552.305788 C126.104925,552.305788 128.265642,554.466505 128.265642,557.142848 Z M129.591536,552.10936 C129.591536,552.735476 129.088188,553.238825 128.462071,553.238825 C127.835954,553.238825 127.332605,552.735476 127.332605,552.10936 C127.332605,551.483243 127.835954,550.979894 128.462071,550.979894 C129.088188,550.979894 129.591536,551.483243 129.591536,552.10936 Z M123.428583,549.408464 C122.053581,549.408464 119.107149,549.297972 117.867192,549.789044 C117.437504,549.96092 117.118307,550.169625 116.786834,550.501099 C116.45536,550.832572 116.246654,551.151769 116.074779,551.581457 C115.583707,552.821414 115.694198,555.767846 115.694198,557.142848 C115.694198,558.517849 115.583707,561.464281 116.074779,562.704238 C116.246654,563.133926 116.45536,563.453123 116.786834,563.784597 C117.118307,564.11607 117.437504,564.324776 117.867192,564.496651 C119.107149,564.987723 122.053581,564.877232 123.428583,564.877232 C124.803584,564.877232 127.750016,564.987723 128.989973,564.496651 C129.419661,564.324776 129.738858,564.11607 130.070332,563.784597 C130.401805,563.453123 130.610511,563.133926 130.782386,562.704238 C131.273458,561.464281 131.162967,558.517849 131.162967,557.142848 C131.162967,555.767846 131.273458,552.821414 130.782386,551.581457 C130.610511,551.151769 130.401805,550.832572 130.070332,550.501099 C129.738858,550.169625 129.419661,549.96092 128.989973,549.789044 C127.750016,549.297972 124.803584,549.408464 123.428583,549.408464 Z M132.857165,557.142848 C132.857165,558.444189 132.869442,559.733253 132.795781,561.034593 C132.722121,562.54464 132.37837,563.882811 131.273458,564.987723 C130.168546,566.092635 128.830375,566.436386 127.320328,566.510046 C126.018988,566.583707 124.729924,566.57143 123.428583,566.57143 C122.127242,566.57143 120.838178,566.583707 119.536837,566.510046 C118.026791,566.436386 116.688619,566.092635 115.583707,564.987723 C114.478795,563.882811 114.135045,562.54464 114.061384,561.034593 C113.987723,559.733253 114,558.444189 114,557.142848 C114,555.841507 113.987723,554.552443 114.061384,553.251102 C114.135045,551.741056 114.478795,550.402884 115.583707,549.297972 C116.688619,548.19306 118.026791,547.84931 119.536837,547.775649 C120.838178,547.701988 122.127242,547.714265 123.428583,547.714265 C124.729924,547.714265 126.018988,547.701988 127.320328,547.775649 C128.830375,547.84931 130.168546,548.19306 131.273458,549.297972 C132.37837,550.402884 132.722121,551.741056 132.795781,553.251102 C132.869442,554.552443 132.857165,555.841507 132.857165,557.142848 Z" id="instagram"></path>
        </g>
    </g>
</svg>