<?xml version="1.0" encoding="UTF-8"?>
<svg width="1440px" height="870px" viewBox="0 0 1440 870" version="1.1" xmlns="http://www.w3.org/2000/svg" xmlns:xlink="http://www.w3.org/1999/xlink">
    <!-- Generator: Sketch 44.1 (41455) - http://www.bohemiancoding.com/sketch -->
    <title>Group 2</title>
    <desc>Created with Sketch.</desc>
    <defs></defs>
    <g id="Page-1" stroke="none" stroke-width="1" fill="none" fill-rule="evenodd">
        <g id="Desktop-HD-Copy-4" fill="#FFFFFF">
            <g id="Group-2">
                <g id="Group">
                    <polygon id="Triangle" points="80 160 0 0 160 2.38087618e-14"></polygon>
                    <polygon id="Triangle-Copy-2" points="400 160 320 0 480 2.38087618e-14"></polygon>
                    <polygon id="Triangle-Copy-5" points="880 160 800 0 960 2.38087618e-14"></polygon>
                    <polygon id="Triangle-Copy-6" points="1040 160 960 0 1120 2.38087618e-14"></polygon>
                </g>
                <g id="Group-Copy" transform="translate(160.000000, 157.000000)">
                    <polygon id="Triangle-Copy" points="80 160 0 0 160 2.38087618e-14"></polygon>
                    <polygon id="Triangle-Copy-2" points="240 160 160 0 320 2.38087618e-14"></polygon>
                    <polygon id="Triangle-Copy-5" points="720 160 640 0 800 2.38087618e-14"></polygon>
                    <polygon id="Triangle-Copy-7" points="1040 160 960 0 1120 2.38087618e-14"></polygon>
                    <polygon id="Triangle-Copy-8" points="1200 160 1120 0 1280 2.38087618e-14"></polygon>
                </g>
                <g id="Group-Copy-2" transform="translate(0.000000, 314.000000)">
                    <polygon id="Triangle" points="80 160 0 0 160 2.38087618e-14"></polygon>
                    <polygon id="Triangle-Copy-3" points="560 160 480 0 640 2.38087618e-14"></polygon>
                    <polygon id="Triangle-Copy-7" points="1200 160 1120 0 1280 2.38087618e-14"></polygon>
                    <polygon id="Triangle-Copy-8" points="1360 160 1280 0 1440 2.38087618e-14"></polygon>
                </g>
                <g id="Group-Copy-3" transform="translate(480.000000, 471.000000)">
                    <polygon id="Triangle-Copy-3" points="80 160 0 0 160 2.38087618e-14"></polygon>
                    <polygon id="Triangle-Copy-4" points="240 160 160 0 320 2.38087618e-14"></polygon>
                    <polygon id="Triangle-Copy-6" points="560 160 480 0 640 2.38087618e-14"></polygon>
                    <polygon id="Triangle-Copy-8" points="880 160 800 0 960 2.38087618e-14"></polygon>
                </g>
                <g id="Group-Copy-4" transform="translate(320.000000, 628.000000)">
                    <polygon id="Triangle-Copy-2" points="80 160 0 0 160 2.38087618e-14"></polygon>
                    <polygon id="Triangle-Copy-4" points="400 160 320 0 480 2.38087618e-14"></polygon>
                    <polygon id="Triangle-Copy-5" points="560 160 480 0 640 2.38087618e-14"></polygon>
                    <polygon id="Triangle-Copy-7" points="880 160 800 0 960 2.38087618e-14"></polygon>
                </g>
                <g id="Group-Copy-5" transform="translate(0.000000, 788.000000)">
                    <polygon id="Triangle" points="80 160 0 0 160 2.38087618e-14"></polygon>
                    <polygon id="Triangle-Copy" points="240 160 160 0 320 2.38087618e-14"></polygon>
                    <polygon id="Triangle-Copy-5" points="880 160 800 0 960 2.38087618e-14"></polygon>
                    <polygon id="Triangle-Copy-6" points="1040 160 960 0 1120 2.38087618e-14"></polygon>
                </g>
            </g>
        </g>
    </g>
</svg>